HIERARCHY
ROOT Hips
{
	OFFSET 0.000000 0.000000 0.000000
	CHANNELS 6 Xposition Yposition Zposition Zrotation Yrotation Xrotation 
	JOINT LHipJoint
	{
		OFFSET 0.000000 0.000000 0.000000
		CHANNELS 3 Zrotation Yrotation Xrotation
		JOINT LeftUpLeg
		{
			OFFSET 1.363060 -1.794630 0.839290
			CHANNELS 3 Zrotation Yrotation Xrotation
			JOINT LeftLeg
			{
				OFFSET 2.448110 -6.726130 0.000000
				CHANNELS 3 Zrotation Yrotation Xrotation
				JOINT LeftFoot
				{
					OFFSET 2.562200 -7.039590 0.000000
					CHANNELS 3 Zrotation Yrotation Xrotation
					JOINT LeftToeBase
					{
						OFFSET 0.157640 -0.433110 2.322550
						CHANNELS 3 Zrotation Yrotation Xrotation
						End Site
						{
							OFFSET 0.000000 0.000000 0.000000
						}
					}
				}
			}
		}
	}
	JOINT RHipJoint
	{
		OFFSET 0.000000 0.000000 0.000000
		CHANNELS 3 Zrotation Yrotation Xrotation
		JOINT RightUpLeg
		{
			OFFSET -1.305520 -1.794630 0.839290
			CHANNELS 3 Zrotation Yrotation Xrotation
			JOINT RightLeg
			{
				OFFSET -2.542530 -6.985550 0.000000
				CHANNELS 3 Zrotation Yrotation Xrotation
				JOINT RightFoot
				{
					OFFSET -2.568260 -7.056230 0.000000
					CHANNELS 3 Zrotation Yrotation Xrotation
					JOINT RightToeBase
					{
						OFFSET -0.164730 -0.452590 2.363150
						CHANNELS 3 Zrotation Yrotation Xrotation
						End Site
						{
							OFFSET 0.000000 0.000000 0.000000
						}
					}
				}
			}
		}
	}
	JOINT LowerBack
	{
		OFFSET 0.000000 0.000000 0.000000
		CHANNELS 3 Zrotation Yrotation Xrotation
		JOINT Spine
		{
			OFFSET 0.028270 2.035590 -0.193380
			CHANNELS 3 Zrotation Yrotation Xrotation
			JOINT Spine1
			{
				OFFSET 0.056720 2.048850 -0.042750
				CHANNELS 3 Zrotation Yrotation Xrotation
				JOINT Neck
				{
					OFFSET 0.000000 0.000000 0.000000
					CHANNELS 3 Zrotation Yrotation Xrotation
					JOINT Neck1
					{
						OFFSET -0.054170 1.746240 0.172020
						CHANNELS 3 Zrotation Yrotation Xrotation
						JOINT Head
						{
							OFFSET 0.104070 1.761360 -0.123970
							CHANNELS 3 Zrotation Yrotation Xrotation
							End Site
							{
								OFFSET 0.000000 0.000000 0.000000
							}
						}
					}
				}
				JOINT LeftShoulder
				{
					OFFSET 0.000000 0.000000 0.000000
					CHANNELS 3 Zrotation Yrotation Xrotation
					JOINT LeftArm
					{
						OFFSET 3.362410 1.200890 -0.311210
						CHANNELS 3 Zrotation Yrotation Xrotation
						JOINT LeftForeArm
						{
							OFFSET 4.983000 -0.000000 -0.000000
							CHANNELS 3 Zrotation Yrotation Xrotation
							JOINT LeftHand
							{
								OFFSET 3.483560 -0.000000 -0.000000
								CHANNELS 3 Zrotation Yrotation Xrotation
								JOINT LeftFingerBase
								{
									OFFSET 0.000000 0.000000 0.000000
									CHANNELS 3 Zrotation Yrotation Xrotation
									JOINT LeftHandIndex1
									{
										OFFSET 0.715260 -0.000000 -0.000000
										CHANNELS 3 Zrotation Yrotation Xrotation
										End Site
										{
											OFFSET 0.000000 0.000000 0.000000
										}
									}
								}
								JOINT LThumb
								{
									OFFSET 0.000000 0.000000 0.000000
									CHANNELS 3 Zrotation Yrotation Xrotation
									End Site
									{
										OFFSET 0.000000 0.000000 0.000000
									}
								}
							}
						}
					}
				}
				JOINT RightShoulder
				{
					OFFSET 0.000000 0.000000 0.000000
					CHANNELS 3 Zrotation Yrotation Xrotation
					JOINT RightArm
					{
						OFFSET -3.136600 1.374050 -0.404650
						CHANNELS 3 Zrotation Yrotation Xrotation
						JOINT RightForeArm
						{
							OFFSET -5.241900 -0.000000 -0.000000
							CHANNELS 3 Zrotation Yrotation Xrotation
							JOINT RightHand
							{
								OFFSET -3.444170 -0.000000 -0.000000
								CHANNELS 3 Zrotation Yrotation Xrotation
								JOINT RightFingerBase
								{
									OFFSET 0.000000 0.000000 0.000000
									CHANNELS 3 Zrotation Yrotation Xrotation
									JOINT RightHandIndex1
									{
										OFFSET -0.622530 -0.000000 -0.000000
										CHANNELS 3 Zrotation Yrotation Xrotation
										End Site
										{
											OFFSET 0.000000 0.000000 0.000000
										}
									}
								}
								JOINT RThumb
								{
									OFFSET 0.000000 0.000000 0.000000
									CHANNELS 3 Zrotation Yrotation Xrotation
									End Site
									{
										OFFSET 0.000000 0.000000 0.000000
									}
								}
							}
						}
					}
				}
			}
		}
	}
}
MOTION
Frames: 9
Frame Time: 0.008333
10.218039 18.600536 15.294757 1.891809 6.260149 7.389715 -2.275959 0.535997 2.322499 -20.627378 -1.360469 -8.960935 -3.037682 5.418139 17.070746 1.106469 0.334405 4.657836 0.013808 0.759093 2.086146 -0.498320 0.908576 -2.524681 13.436774 4.071089 -33.201906 -2.023903 -14.494084 37.869399 1.592412 -7.571590 2.396942 -1.135295 6.766528 -19.025602 -2.108638 -2.172305 -4.044374 1.201463 -3.076715 -5.413857 5.034459 -1.983233 6.700240 -9.749543 -0.579663 -19.580370 3.251843 1.740389 7.255257 4.552687 0.199821 10.110092 -0.685480 -8.110501 -0.405387 -78.210416 -16.166982 51.218239 13.052703 -21.151285 -3.576394 0.136009 1.565227 -4.000104 17.343854 -24.232550 -7.658780 -7.125000 0.000000 0.000000 -7.642093 3.263426 7.260531 0.110589 7.909143 0.495501 75.526461 -8.443259 40.510663 -17.794867 25.136570 -6.008593 2.837623 2.488810 -16.187321 -31.922363 -25.266479 17.304068 7.125000 0.000000 0.000000 -6.561531 -60.850158 2.513420
10.222807 18.606937 15.410143 1.932834 6.338912 7.495493 -2.309998 0.589109 2.388769 -20.607123 -1.486483 -8.453428 -3.090049 5.246587 16.670222 1.066961 0.431875 4.528578 0.021935 0.926772 2.547542 -0.421617 0.949554 -2.574917 13.080455 4.629230 -33.040173 -1.541123 -14.014106 36.135219 1.554209 -7.527693 2.477320 -1.062803 6.547451 -18.383758 -2.185747 -2.187658 -4.217059 1.208364 -3.078274 -5.399201 5.125254 -2.012160 6.883539 -9.814760 -0.633754 -19.765367 3.269520 1.705960 7.281076 4.571736 0.181651 10.164649 -0.669535 -8.111133 -0.397391 -78.195373 -16.948701 51.306383 13.160044 -21.240642 -3.622674 0.154773 1.574349 -3.831845 17.425004 -24.314811 -7.716088 -7.125000 0.000000 0.000000 -7.609545 3.157269 7.243933 0.127841 7.881474 0.492788 75.512799 -8.591023 40.423122 -17.510101 24.888030 -5.913991 2.806836 2.646930 -16.275410 -31.378974 -26.473678 17.755952 7.125000 0.000000 0.000000 -5.631353 -62.212944 2.348366
10.229512 18.618614 15.528589 1.968384 6.371909 7.587275 -2.346656 0.647222 2.453506 -20.585048 -1.691190 -7.895542 -3.148247 5.064150 16.236469 0.986907 0.637384 4.401678 0.035591 1.202187 3.305504 -0.339316 0.987499 -2.621763 12.707682 5.208547 -32.838173 -1.067556 -13.513932 34.382155 1.519741 -7.501991 2.631268 -0.955304 6.218951 -17.422596 -2.242238 -2.188081 -4.412966 1.213959 -3.060114 -5.382066 5.214549 -2.031719 7.083856 -9.910045 -0.705520 -19.953905 3.299887 1.658769 7.300644 4.608826 0.157951 10.215714 -0.657723 -8.104735 -0.390192 -78.232969 -17.714234 51.306530 13.246099 -21.308329 -3.664290 0.176811 1.586484 -3.521263 17.527714 -24.431560 -7.794414 -7.125000 0.000000 0.000000 -7.566875 3.008748 7.223422 0.143894 7.850525 0.491424 75.474727 -8.758909 40.378634 -17.216482 24.620381 -5.794254 2.768322 2.748195 -16.357965 -30.731089 -27.151392 17.779121 7.125000 0.000000 0.000000 -4.580388 -62.898106 1.984476
10.225023 18.630330 15.624643 2.067300 6.792862 7.734126 -2.385881 0.697139 2.520752 -20.519878 -1.837327 -7.450934 -3.227250 4.824641 15.662365 1.042555 0.479223 4.660456 0.040252 1.295022 3.560959 -0.268457 1.030799 -2.674328 12.233647 5.704101 -32.707675 -0.637878 -13.014434 32.674422 1.568690 -7.709549 2.553293 -0.882530 5.985951 -16.744371 -2.444987 -2.328000 -4.414374 1.234673 -3.221283 -5.385956 5.368814 -2.143367 7.152613 -9.969395 -0.782361 -20.155008 3.347036 1.599916 7.312074 4.635049 0.131697 10.296682 -0.639207 -8.129398 -0.390354 -78.189741 -18.508539 51.193415 13.347865 -21.386120 -3.713052 0.217539 1.593992 -3.223501 17.438584 -24.514468 -7.762163 -7.125000 0.000000 0.000000 -7.647916 2.932769 7.313163 0.156887 7.855625 0.476405 75.563670 -8.854270 40.151995 -16.887351 24.251883 -5.619945 2.793204 2.670267 -16.163508 -30.773443 -26.485844 17.404458 7.125000 0.000000 0.000000 -4.801431 -62.111085 1.976209
10.215196 18.642065 15.710023 2.196425 7.398771 7.907230 -2.426330 0.743150 2.589194 -20.434163 -1.955540 -7.060330 -3.316172 4.557923 15.021351 1.162898 0.147684 5.103104 0.040624 1.300814 3.576847 -0.203052 1.076652 -2.729618 11.711336 6.159723 -32.611265 -0.229124 -12.515258 30.988299 1.657407 -8.028313 2.364749 -0.826310 5.798480 -16.201034 -2.717464 -2.534421 -4.323058 1.262595 -3.467947 -5.399870 5.554053 -2.298919 7.158648 -10.011615 -0.861620 -20.362102 3.402184 1.535503 7.319624 4.656092 0.104224 10.391905 -0.617495 -8.168868 -0.394025 -78.107980 -19.316560 51.026303 13.457122 -21.468730 -3.765220 0.267176 1.599293 -2.931853 17.257997 -24.581244 -7.677195 -7.125000 0.000000 0.000000 -7.787935 2.891374 7.455467 0.168422 7.877911 0.454876 75.713166 -8.915057 39.838517 -16.541289 23.835306 -5.419618 2.848311 2.506910 -15.836988 -31.144865 -25.179904 16.840131 7.125000 0.000000 0.000000 -5.628897 -60.622209 2.137483
10.212448 18.633572 15.817883 2.321597 7.581566 8.017190 -2.442369 0.813274 2.682877 -20.481307 -1.710049 -6.530304 -3.386417 4.265606 14.345338 1.225514 -0.045453 5.203912 0.026332 0.975123 2.680862 -0.136184 1.109711 -2.787538 11.245199 6.729851 -32.432674 0.134979 -12.037469 29.439110 1.645670 -8.046134 2.179746 -0.831788 5.817869 -16.256978 -2.932237 -2.626617 -4.431844 1.264147 -3.555603 -5.386165 5.583853 -2.372829 7.330467 -9.845778 -0.850024 -20.564674 3.336177 1.507622 7.402745 4.545792 0.091120 10.488101 -0.583455 -8.183144 -0.378081 -77.886012 -20.028518 51.078124 13.614639 -21.613991 -3.827775 0.282606 1.598057 -3.148868 17.184313 -24.606651 -7.638628 -7.125000 0.000000 0.000000 -7.847027 2.881844 7.514435 0.196440 7.839731 0.429635 75.918009 -9.099660 39.420593 -16.267905 23.521133 -5.242601 2.877150 2.291326 -15.349307 -31.329857 -23.486521 15.862973 7.125000 0.000000 0.000000 -6.119598 -58.594399 2.019634
10.211523 18.619872 15.931531 2.445752 7.655440 8.110894 -2.452124 0.889606 2.783058 -20.562652 -1.370932 -5.964387 -3.451853 3.966699 13.660315 1.273269 -0.202962 5.216722 0.008265 0.564100 1.550137 -0.068939 1.139477 -2.846136 10.793524 7.329457 -32.232928 0.487587 -11.565185 27.925170 1.608074 -7.986484 1.995655 -0.853150 5.890508 -16.467192 -3.132154 -2.689407 -4.592142 1.258911 -3.602327 -5.365351 5.573640 -2.425724 7.544963 -9.626382 -0.815040 -20.766082 3.238982 1.489144 7.505319 4.401682 0.081715 10.584546 -0.546242 -8.190935 -0.357089 -77.627951 -20.715745 51.186304 13.784578 -21.775381 -3.893003 0.289229 1.595139 -3.496827 17.138148 -24.621408 -7.612006 -7.125000 0.000000 0.000000 -7.885286 2.880515 7.551951 0.228701 7.785984 0.403438 76.137099 -9.316138 38.975780 -16.013229 23.233322 -5.071584 2.899226 2.062297 -14.820140 -31.466857 -21.693400 14.779541 7.125000 0.000000 0.000000 -6.523607 -56.427854 1.829931
10.214453 18.608283 16.053784 2.648688 7.781558 8.219547 -2.445207 0.977125 2.878156 -20.736132 -1.260812 -5.247849 -3.525570 3.644676 12.915534 1.263600 -0.225374 5.219936 0.005390 0.468995 1.288635 -0.018145 1.159974 -2.893294 10.264146 7.818506 -32.072943 0.773495 -11.129081 26.565538 1.573087 -7.928328 1.787992 -0.871987 5.953392 -16.649402 -3.365384 -2.785454 -4.816334 1.247717 -3.689678 -5.369119 5.536338 -2.484920 7.606380 -9.469453 -0.759784 -20.685035 3.191669 1.492081 7.593301 4.316833 0.084637 10.586348 -0.537989 -8.193239 -0.335650 -77.349287 -21.113154 51.604415 13.999854 -21.981414 -3.964135 0.259613 1.588553 -4.158732 17.331806 -24.505607 -7.675805 -7.125000 0.000000 0.000000 -7.751196 2.974510 7.407943 0.246759 7.737577 0.387072 76.340206 -9.717982 38.527952 -15.679772 22.882506 -4.886550 2.875312 1.949394 -14.279601 -30.875995 -20.827717 13.924371 7.125000 0.000000 0.000000 -5.907495 -55.264732 1.508891
10.217708 18.597358 16.176660 2.858018 7.912933 8.329214 -2.436611 1.065942 2.972934 -20.916623 -1.173104 -4.516869 -3.600334 3.318621 12.160480 1.247082 -0.231036 5.229397 0.003992 0.405518 1.114151 0.030676 1.179581 -2.939718 9.724397 8.308612 -31.917068 1.051042 -10.698396 25.225645 1.544552 -7.886925 1.568204 -0.890795 6.015976 -16.830785 -3.600536 -2.884012 -5.043930 1.235980 -3.780211 -5.375622 5.497929 -2.544305 7.649751 -9.323957 -0.705136 -20.574961 3.152895 1.495506 7.679262 4.241856 0.088036 10.579038 -0.532956 -8.195055 -0.314600 -77.071916 -21.480690 52.048748 14.218971 -22.191032 -4.035902 0.226740 1.581907 -4.838789 17.552994 -24.379376 -7.751122 -7.125000 0.000000 0.000000 -7.597972 3.074344 7.244496 0.262051 7.690397 0.372091 76.542936 -10.139458 38.107723 -15.342269 22.530762 -4.704641 2.849363 1.855435 -13.789219 -30.266663 -20.100856 13.149805 7.125000 0.000000 0.000000 -5.251157 -54.268418 1.200405
